<?xml version="1.0" encoding="utf-8"?>
<!-- Generator: Adobe Illustrator 19.1.1, SVG Export Plug-In . SVG Version: 6.00 Build 0)  -->
<svg version="1.1" id="Layer_1" xmlns="http://www.w3.org/2000/svg" xmlns:xlink="http://www.w3.org/1999/xlink" x="0px" y="0px"
	 viewBox="0 0 19 19" style="enable-background:new 0 0 19 19;" xml:space="preserve">
<style type="text/css">
	.st0{fill:#58965B;}
	.st1{fill:#FFFFFF;}
</style>
<circle class="st0" cx="9.5" cy="9.5" r="9.5"/>
<g>
	<path class="st1" d="M8.2,7.4c0,0.3,0,0.5-0.1,0.7C8,8.3,7.8,8.5,7.7,8.7C7.5,8.8,7.4,9,7.2,9.1C7,9.2,6.8,9.2,6.5,9.3v0
		c0.6,0.1,1.1,0.3,1.4,0.6c0.3,0.3,0.5,0.7,0.5,1.2c0,0.3-0.1,0.6-0.2,0.9c-0.1,0.3-0.3,0.5-0.5,0.7s-0.6,0.4-0.9,0.5
		c-0.4,0.1-0.8,0.2-1.3,0.2c-0.4,0-0.8,0-1.1-0.1c-0.4-0.1-0.7-0.2-1-0.3v-1.4c0.2,0.1,0.3,0.2,0.5,0.2c0.2,0.1,0.3,0.1,0.5,0.2
		c0.2,0,0.3,0.1,0.5,0.1s0.3,0,0.5,0c0.3,0,0.5,0,0.7-0.1c0.2-0.1,0.4-0.1,0.5-0.2c0.1-0.1,0.2-0.2,0.2-0.4c0-0.1,0.1-0.3,0.1-0.5
		c0-0.2,0-0.3-0.1-0.4c-0.1-0.1-0.2-0.2-0.3-0.3c-0.1-0.1-0.3-0.2-0.6-0.2S5.3,10,5,10H4.4V8.8H5c0.3,0,0.6,0,0.8-0.1
		C6,8.7,6.1,8.6,6.3,8.5c0.1-0.1,0.2-0.2,0.3-0.3s0.1-0.3,0.1-0.4c0-0.3-0.1-0.5-0.2-0.6C6.2,7,5.9,6.9,5.6,6.9c-0.2,0-0.3,0-0.5,0
		C5,7,4.8,7,4.7,7.1C4.6,7.1,4.5,7.2,4.4,7.3C4.3,7.3,4.2,7.4,4.1,7.4L3.3,6.4c0.1-0.1,0.3-0.2,0.5-0.3C3.9,6,4.1,5.9,4.3,5.8
		C4.5,5.8,4.7,5.7,5,5.7c0.2,0,0.5-0.1,0.7-0.1c0.4,0,0.7,0,1,0.1C7,5.8,7.3,5.9,7.5,6.1C7.7,6.2,7.9,6.4,8,6.7
		C8.1,6.9,8.2,7.1,8.2,7.4z"/>
	<path class="st1" d="M15.7,9.4c0,1.2-0.4,2.2-1.1,2.9c-0.7,0.7-1.7,1-3.1,1H9.5V5.7h2.4c1.2,0,2.2,0.3,2.9,1S15.7,8.3,15.7,9.4z
		 M14.1,9.5c0-1.6-0.7-2.4-2.1-2.4h-0.9V12h0.7C13.3,12,14.1,11.1,14.1,9.5z"/>
</g>
</svg>
